<svg xmlns="http://www.w3.org/2000/svg" viewBox="0 0 800 450" role="img" aria-label="Network of connected nodes representing participatory ethics">
  <defs>
    <linearGradient id="part-eth-bg" x1="0" y1="0" x2="1" y2="1">
      <stop offset="0" stop-color="#051a2e"/>
      <stop offset="1" stop-color="#0d4f8b"/>
    </linearGradient>
    <radialGradient id="part-eth-halo" cx="0.7" cy="0.45" r="0.55">
      <stop offset="0" stop-color="#cfe2f3" stop-opacity="0.22"/>
      <stop offset="1" stop-color="#cfe2f3" stop-opacity="0"/>
    </radialGradient>
  </defs>
  <rect width="800" height="450" fill="url(#part-eth-bg)"/>
  <rect width="800" height="450" fill="url(#part-eth-halo)"/>
  <g stroke="rgba(207,226,243,0.35)" stroke-width="1" fill="none">
    <line x1="560" y1="110" x2="460" y2="225"/>
    <line x1="560" y1="110" x2="660" y2="175"/>
    <line x1="460" y1="225" x2="660" y2="175"/>
    <line x1="460" y1="225" x2="520" y2="340"/>
    <line x1="660" y1="175" x2="720" y2="290"/>
    <line x1="520" y1="340" x2="720" y2="290"/>
    <line x1="520" y1="340" x2="400" y2="320"/>
    <line x1="400" y1="320" x2="460" y2="225"/>
    <line x1="460" y1="225" x2="720" y2="290"/>
  </g>
  <g>
    <circle cx="560" cy="110" r="14" fill="#6cb4e4"/>
    <circle cx="460" cy="225" r="18" fill="#cfe2f3"/>
    <circle cx="660" cy="175" r="12" fill="#6cb4e4" opacity="0.8"/>
    <circle cx="520" cy="340" r="14" fill="#cfe2f3" opacity="0.85"/>
    <circle cx="720" cy="290" r="10" fill="#6cb4e4" opacity="0.7"/>
    <circle cx="400" cy="320" r="9" fill="#cfe2f3" opacity="0.6"/>
  </g>
  <g fill="none" stroke="#6cb4e4" stroke-width="1.6" opacity="0.6">
    <circle cx="460" cy="225" r="32"/>
  </g>
  <g transform="translate(56 76)" font-family="'IBM Plex Mono', monospace" fill="#cfe2f3" font-size="12" letter-spacing="3">
    <text y="0" opacity="0.65">VCASSE / ETHICS</text>
    <text y="22" opacity="0.4">PARTICIPATION · POLICY</text>
  </g>
  <g transform="translate(56 210)" fill="#ffffff" font-family="'IBM Plex Sans', 'Inter', sans-serif">
    <text font-size="32" font-weight="600" letter-spacing="-0.5">Residents at</text>
    <text y="42" font-size="32" font-weight="600" letter-spacing="-0.5">the decision</text>
    <text y="84" font-size="32" font-weight="600" letter-spacing="-0.5" fill="#6cb4e4">table</text>
  </g>
</svg>
